<svg width="119" height="33" viewBox="0 0 119 33" fill="none" xmlns="http://www.w3.org/2000/svg">
<g clip-path="url(#clip0_1_37)">
<path d="M31.764 0.591279C31.4442 0.334445 31.0698 0.154067 30.6696 0.0639053C30.2694 -0.0262566 29.8539 -0.0238201 29.4548 0.0710289C28.1837 0.411209 27.0112 1.04772 26.0335 1.9284C25.0558 2.80908 24.3006 3.90888 23.8299 5.13769C21.4388 4.47889 18.9746 4.12203 16.4948 4.07546C14.015 4.12203 11.5508 4.47889 9.15966 5.13769C8.68844 3.90848 7.93263 2.80843 6.95418 1.92773C5.97572 1.04703 4.80248 0.41074 3.53063 0.0710289C3.13153 -0.0239226 2.716 -0.0264105 2.31579 0.0637552C1.91557 0.153921 1.54126 0.334355 1.22143 0.591279C0.900278 0.846388 0.641056 1.1709 0.463207 1.54048C0.285357 1.91006 0.193496 2.31511 0.194514 2.72525V13.3911C0.189141 15.354 0.573197 17.2986 1.32445 19.1121C2.0757 20.9257 3.17922 22.5722 4.57113 23.9563L10.897 30.2822C12.3875 31.7556 14.3989 32.5819 16.4948 32.5819C18.5906 32.5819 20.602 31.7556 22.0926 30.2822L28.4184 23.9563C29.8101 22.572 30.9134 20.9254 31.6647 19.1119C32.4159 17.2984 32.8001 15.354 32.795 13.3911V2.72525C32.7962 2.31468 32.7039 1.90921 32.5253 1.53952C32.3467 1.16982 32.0864 0.845573 31.764 0.591279ZM7.05556 7.22141C7.16935 7.56302 7.41411 7.84549 7.73607 8.00672C8.05802 8.16795 8.43082 8.19476 8.77252 8.08125C11.2748 7.29739 13.8735 6.86358 16.4948 6.79217C19.116 6.86376 21.7147 7.29756 24.217 8.08125C24.5585 8.19434 24.931 8.16732 25.2526 8.00612C25.5743 7.84492 25.8188 7.56271 25.9326 7.22141C26.7707 4.70981 28.2024 3.15314 30.0783 2.72525V11.1022C26.7802 11.8615 17.8531 14.9206 17.8531 25.8091V26.0591C16.9769 25.7331 16.0127 25.7331 15.1364 26.0591V25.8091C15.1364 14.9219 6.21067 11.8615 2.91122 11.1022V2.7171C4.78711 3.15314 6.21882 4.71117 7.05556 7.22141ZM6.49185 22.0356C4.31741 19.8671 3.04653 16.9544 2.93567 13.8855C3.86145 14.1292 4.76271 14.4579 5.62793 14.8676V14.9423C5.87198 16.0669 6.48667 17.077 7.37341 17.8106C8.26015 18.5441 9.36756 18.9586 10.518 18.9875C11.8223 21.0189 12.485 23.3959 12.4197 25.8091V27.9635L6.49185 22.0356ZM26.4977 22.0356L20.5698 27.9635V25.8091C20.5046 23.3959 21.1672 21.0189 22.4715 18.9875C23.6218 18.9581 24.729 18.5434 25.6157 17.81C26.5023 17.0765 27.1171 16.0667 27.3616 14.9423V14.8676C28.2269 14.4584 29.1281 14.1301 30.0539 13.8869C29.9427 16.9553 28.6718 19.8674 26.4977 22.0356Z" fill="url(#paint0_linear_1_37)"/>
</g>
<path d="M107.371 29.7627H104.087V9.2043H107.094V11.7204H107.248C107.954 9.94072 109.703 8.89746 112.341 8.89746C116.637 8.89746 119 11.9966 119 16.8447C119 21.6621 116.699 24.7612 112.556 24.7612C109.825 24.7612 108.138 23.5031 107.463 22.0917H107.371V29.7627ZM107.371 18.1948C107.371 20.7416 108.843 21.9383 111.544 21.9383C114.459 21.9383 115.686 20.5881 115.686 16.8447C115.686 13.0705 114.489 11.7204 111.544 11.7204C108.843 11.7204 107.371 12.9171 107.371 15.4639V18.1948Z" fill="url(#paint1_linear_1_37)"/>
<path d="M92.292 24.7612C89.5611 24.7612 87.4438 23.3497 87.4438 20.6802C87.4438 18.1641 89.2849 16.8447 92.5374 16.3844L97.8765 15.5866V14.7581C97.8765 12.4875 96.8332 11.8125 94.4398 11.8125C92.0158 11.8125 91.0646 12.5796 91.0646 14.6047V15.065H87.8734V14.7581C87.8734 11.3522 90.543 8.89746 94.624 8.89746C98.8891 8.89746 101.037 11.4749 101.037 15.1877V24.4544H97.9685V22.061H97.8151C96.9253 23.5031 95.1763 24.7612 92.292 24.7612ZM90.6657 20.4347C90.6657 21.6314 91.4328 22.1224 93.3659 22.1224C95.5138 22.1224 97.8765 21.2632 97.8765 18.1948V17.9186L93.0284 18.655C91.2794 18.9005 90.6657 19.2994 90.6657 20.4347Z" fill="url(#paint2_linear_1_37)"/>
<path d="M71.1086 24.4543H66.7821L63.0079 9.20428H66.598L68.347 17.6731L68.9607 21.6928H69.2061L70.2187 17.6731L72.8883 9.20428H77.184L79.8843 17.7038L80.8355 21.6928H81.0809L81.6946 17.7038L83.4743 9.20428H86.9109L83.1368 24.4543H78.841L76.1101 15.9548L75.0975 12.1193H74.852L73.8701 15.9548L71.1086 24.4543Z" fill="url(#paint3_linear_1_37)"/>
<path d="M55.907 24.7612C51.4578 24.7612 49.1258 23.0122 49.1258 19.2994V19.238H52.3169V19.7904C52.3169 21.4473 53.0534 22.061 55.9684 22.061C58.4231 22.061 58.8834 21.5087 58.8834 20.3734C58.8834 19.146 58.1469 18.7778 55.907 18.3789L53.5443 17.98C50.8134 17.489 49.0951 16.2617 49.0951 13.5001C49.0951 10.7385 51.3657 8.89746 55.3547 8.89746C58.9447 8.89746 61.6449 10.6771 61.6449 14.1445V14.4206H58.4845V14.0524C58.4845 12.6409 57.9935 11.6284 55.2626 11.6284C52.8386 11.6284 52.2556 12.2727 52.2556 13.4387C52.2556 14.6047 52.8079 14.9423 54.9558 15.3718L57.5333 15.8628C60.4789 16.4458 62.0131 17.7652 62.0131 20.2813C62.0131 23.1043 59.7732 24.7612 55.907 24.7612Z" fill="url(#paint4_linear_1_37)"/>
<defs>
<linearGradient id="paint0_linear_1_37" x1="0.194458" y1="5.3023" x2="36.8271" y2="8.13277" gradientUnits="userSpaceOnUse">
<stop stop-color="#A8DAFF"/>
<stop offset="1" stop-color="#FFF7E6"/>
</linearGradient>
<linearGradient id="paint1_linear_1_37" x1="104.087" y1="12.2941" x2="120.893" y2="13.2217" gradientUnits="userSpaceOnUse">
<stop stop-color="#A8DAFF"/>
<stop offset="1" stop-color="#FFF7E6"/>
</linearGradient>
<linearGradient id="paint2_linear_1_37" x1="87.4438" y1="11.4799" x2="102.742" y2="12.4923" gradientUnits="userSpaceOnUse">
<stop stop-color="#A8DAFF"/>
<stop offset="1" stop-color="#FFF7E6"/>
</linearGradient>
<linearGradient id="paint3_linear_1_37" x1="63.0079" y1="11.6869" x2="89.6374" y2="14.9102" gradientUnits="userSpaceOnUse">
<stop stop-color="#A8DAFF"/>
<stop offset="1" stop-color="#FFF7E6"/>
</linearGradient>
<linearGradient id="paint4_linear_1_37" x1="49.0951" y1="11.4799" x2="63.64" y2="12.3946" gradientUnits="userSpaceOnUse">
<stop stop-color="#A8DAFF"/>
<stop offset="1" stop-color="#FFF7E6"/>
</linearGradient>
<clipPath id="clip0_1_37">
<rect width="32.6005" height="32.6005" fill="white" transform="translate(0.194336 6.10352e-05)"/>
</clipPath>
</defs>
</svg>
