<svg width="23" height="25" viewBox="0 0 23 25" fill="none" xmlns="http://www.w3.org/2000/svg">
<g clip-path="url(#clip0_41_20)">
<path d="M13.908 11.4198L15.7388 8.31427L20.6721 15.9988V17.4731L20.6559 7.32575C20.6501 7.20337 20.615 7.08417 20.5535 6.97822C20.492 6.87227 20.4058 6.78268 20.3024 6.71702L11.4228 1.60739C11.3169 1.55639 11.2008 1.52991 11.0832 1.52991C10.9657 1.52991 10.8496 1.55639 10.7437 1.60739C10.7172 1.62129 10.6913 1.63652 10.6663 1.65303L10.6354 1.67314L2.01106 6.67216L1.97703 6.68763C1.86614 6.74007 1.76931 6.81812 1.69453 6.91536C1.61976 7.0126 1.56918 7.12622 1.54697 7.24686C1.54154 7.27654 1.53766 7.30649 1.53537 7.33658L1.54697 15.6059L6.14146 8.48288C6.72003 7.53846 7.98081 7.23448 9.15109 7.25073L10.5248 7.28708L2.43184 20.2654L3.38554 20.8145L11.5752 7.30023L15.1951 7.28708L7.0271 21.1425L10.4304 23.1002L10.8373 23.3322C11.0129 23.4014 11.2075 23.4053 11.3857 23.343L20.3929 18.1228L18.6711 19.1206L13.908 11.4198ZM14.6041 21.4751L11.166 16.0793L13.2645 12.5212L17.7801 19.6373L14.6041 21.4751Z" fill="#2D374B"/>
<path d="M11.1683 16.0824L14.6065 21.4782L17.7824 19.6381L13.2676 12.5212L11.1683 16.0824Z" fill="#28A0F0"/>
<path d="M20.6744 17.473V15.9988L15.7412 8.31421L13.9103 11.4197L18.6734 19.1229L20.3952 18.1251C20.4787 18.0576 20.547 17.9732 20.5957 17.8775C20.6443 17.7818 20.6722 17.6769 20.6775 17.5697L20.6744 17.473Z" fill="#28A0F0"/>
<path d="M0 18.8637L2.43183 20.2652L10.5248 7.28697L9.15108 7.25061C7.9808 7.23437 6.72002 7.53835 6.14146 8.48277L1.54697 15.6058L0 17.9811V18.8637Z" fill="white"/>
<path d="M15.1951 7.28699L11.5752 7.30014L3.38554 20.8144L6.24821 22.4627L7.0271 21.1424L15.1951 7.28699Z" fill="white"/>
<path d="M22.199 7.2708C22.1829 6.89667 22.0759 6.5321 21.8872 6.20864C21.6985 5.88518 21.4339 5.61258 21.1161 5.41444L12.1189 0.239836C11.7978 0.0821267 11.4449 0.00012207 11.0871 0.00012207C10.7294 0.00012207 10.3764 0.0821267 10.0553 0.239836C9.97794 0.277737 1.30332 5.30925 1.30332 5.30925C1.18279 5.36749 1.06739 5.4358 0.958346 5.51345C0.676811 5.71392 0.444333 5.97554 0.278356 6.27869C0.112379 6.58185 0.0172134 6.91865 0 7.26384L0 17.9812L1.54697 15.6059L1.53227 7.33655C1.53559 7.3064 1.54049 7.27645 1.54697 7.24682C1.58237 7.05079 1.69351 6.87657 1.85636 6.76185C1.89735 6.73246 10.7213 1.62437 10.7514 1.61045C10.8573 1.55945 10.9734 1.53296 11.091 1.53296C11.2085 1.53296 11.3246 1.55945 11.4305 1.61045L20.3047 6.71699C20.4082 6.78264 20.4943 6.87223 20.5558 6.97818C20.6173 7.08413 20.6524 7.20333 20.6582 7.32572V17.5697C20.6563 17.6759 20.6317 17.7804 20.5859 17.8763C20.5402 17.9721 20.4743 18.0569 20.3929 18.1251L18.6711 19.1229L17.7824 19.638L14.6065 21.4781L11.3857 23.3453C11.2076 23.408 11.0128 23.4041 10.8373 23.3345L7.0271 21.1425L6.2482 22.4628L9.67241 24.4344L9.96943 24.6022C10.0978 24.6742 10.1852 24.7221 10.2162 24.7376C10.5027 24.8626 10.8124 24.9261 11.125 24.924C11.4117 24.9257 11.6962 24.8732 11.9635 24.7693L21.3226 19.3549C21.5863 19.1485 21.8015 18.8867 21.9529 18.5879C22.1043 18.2892 22.1883 17.9609 22.199 17.6262V7.2708Z" fill="#96BEDC"/>
</g>
<defs>
<clipPath id="clip0_41_20">
<rect width="22.1997" height="24.924" fill="white"/>
</clipPath>
</defs>
</svg>
